<?xml version="1.0" encoding="UTF-8"?>
<!DOCTYPE svg PUBLIC "-//W3C//DTD SVG 1.1//EN" "http://www.w3.org/Graphics/SVG/1.1/DTD/svg11.dtd">
<!-- Creator: CorelDRAW 2020 (64-Bit) -->
<svg xmlns="http://www.w3.org/2000/svg" xml:space="preserve" width="512px" height="512px" version="1.1" style="shape-rendering:geometricPrecision; text-rendering:geometricPrecision; image-rendering:optimizeQuality; fill-rule:evenodd; clip-rule:evenodd"
viewBox="0 0 74.01 74.01"
 xmlns:xlink="http://www.w3.org/1999/xlink"
 xmlns:xodm="http://www.corel.com/coreldraw/odm/2003">
 <defs>
  <style type="text/css">
   <![CDATA[
    .fil1 {fill:#FEFEFE}
    .fil0 {fill:url(#id0)}
   ]]>
  </style>
  <linearGradient id="id0" gradientUnits="userSpaceOnUse" x1="37" y1="0" x2="37" y2="74.01">
   <stop offset="0" style="stop-opacity:1; stop-color:#18BA87"/>
   <stop offset="1" style="stop-opacity:1; stop-color:#066344"/>
  </linearGradient>
 </defs>
 <g id="Layer_x0020_1">
  <metadata id="CorelCorpID_0Corel-Layer"/>
  <rect class="fil0" width="74.01" height="74.01"/>
  <path class="fil1" d="M57.12 15.39l-0.01 0.07 -0.07 1.31c-0.08,1.21 -0.18,2.47 -0.39,3.52 -0.27,1.31 -0.3,2.06 -0.71,3.43 -0.82,2.75 -2.05,5.77 -4.73,7.18 -0.89,0.47 -1.86,0.71 -3,0.84 -0.51,0.05 -1.05,0.06 -1.6,0.03 -4.33,7.64 -4.39,9.71 -4.4,21.53 11.7,0.56 21.57,2.98 26.73,6.32 -8.11,-2.18 -19.42,-3.53 -31.94,-3.53 -12.51,0 -23.82,1.35 -31.93,3.53 5.26,-3.4 15.41,-5.85 27.41,-6.35 -0.01,-10.19 -0.35,-13.62 -3.27,-19.32 -2.61,0.49 -5.47,0.09 -7.48,-1.45 -0.64,-0.48 -1.09,-0.99 -1.54,-1.66l-0.59 -0.99c-1.89,-3.81 -1.95,-8.28 -1.66,-13.24 0.03,-0.53 0.56,-0.81 1.11,-0.78 4.97,0.29 13.12,1.32 15.42,6.28 0.2,0.42 0.28,0.78 0.41,1.22 0.16,0.52 0.9,4.79 -0.65,4.7 -0.32,-0.02 -0.55,-0.09 -0.77,-0.34l-2.26 -2.53c-0.89,-0.88 -3.47,-2.84 -4.55,-3.25 -0.46,-0.17 -1.16,0.07 -1.19,0.64 -0.04,0.68 0.1,0.68 0.84,1.12 0.35,0.21 0.68,0.42 1.07,0.64l2.03 1.45c0.31,0.25 0.57,0.5 0.9,0.78 1.92,1.61 3.93,4.61 4.93,6.94 0.43,1.01 0.76,1.87 1.06,2.85l0.8 1.36 0.56 -2.09c0.16,-0.57 0.28,-0.91 0.45,-1.44 0.25,-0.8 1.32,-3.37 1.71,-4.08 0.13,-0.22 0.21,-0.36 0.34,-0.59l0.68 -1.18c1.04,-1.67 1.62,-2.25 2.87,-3.67 1.08,-1.22 2.77,-2.43 4.16,-3.27 1.68,-1.02 0.82,-1.89 0.08,-1.94 -0.4,-0.02 -1.76,0.94 -2.17,1.21 -0.25,0.16 -0.5,0.31 -0.73,0.48 -1.22,0.92 -2.66,2.19 -3.58,3.43 -0.23,0.31 -0.79,1.13 -1.05,1.34 -0.55,0.45 -1.25,0.15 -1.44,-0.42 -0.16,-0.48 -0.13,-1.93 -0.09,-2.6 0.06,-0.93 0.33,-1.99 0.59,-2.74 2.11,-5.89 11.39,-5.95 16.63,-5.64 0.3,0.02 0.52,0.09 0.7,0.24 0.17,0.16 0.34,0.37 0.32,0.66z"/>
 </g>
</svg>
