<svg width="102" height="37" viewBox="0 0 102 37" fill="none" xmlns="http://www.w3.org/2000/svg">
<g clip-path="url(#clip0_4793_3627)">
<path fill-rule="evenodd" clip-rule="evenodd" d="M19.7659 10.3331L9.80266 12.1145C7.55012 12.5174 5.63517 13.2842 4.05704 14.4155C2.47929 15.5468 1.34936 16.9626 0.666468 18.6631C-0.0160398 20.3635 -0.174431 22.25 0.19168 24.3226C0.557791 26.3948 1.35244 28.1107 2.57602 29.4708C3.79922 30.8308 5.34498 31.7678 7.21368 32.2831C9.08239 32.7979 11.143 32.8542 13.3956 32.4513L23.3592 30.6699L21.6238 20.8473L21.5329 20.8659L21.0885 18.3525L12.9111 19.9983L13.8484 25.3019L15.3221 24.9755L15.5992 26.5429L12.74 27.0539C11.2767 27.3156 10.0324 27.1035 9.00801 26.4177C7.9829 25.7319 7.33508 24.6238 7.06493 23.0936C6.79478 21.5634 7.02292 20.2987 7.75013 19.2996C8.47734 18.3006 9.57259 17.6702 11.0359 17.4085L13.895 16.8971L13.8993 16.9219L20.7147 15.7034L19.7659 10.3331Z" fill="#066344"/>
<path fill-rule="evenodd" clip-rule="evenodd" d="M32.2229 24.8429L30.3492 24.9596L30.6687 30.1434L23.76 30.5745L22.4886 9.95861L32.3543 9.34257C33.1131 9.29527 33.8361 9.30108 34.5225 9.35963C34.7583 10.4874 35.1102 11.5675 35.6181 12.5961C35.7927 12.895 35.9696 13.1943 36.1476 13.4913C36.3519 13.8034 36.5615 14.0798 36.7978 14.3399C37.0429 14.6094 37.3022 14.849 37.597 15.0754C38.6807 15.9085 40.0141 16.3796 41.3992 16.5354C41.6562 16.5645 41.9156 16.5823 42.1761 16.5897C42.2574 18.0401 42.0039 19.3284 41.4154 20.4554C40.8196 21.5963 39.917 22.5295 38.7081 23.2557L43.4039 29.3486L36.0262 29.8088L32.2229 24.8429ZM36.97 9.84036C37.1018 9.88301 37.2317 9.92837 37.36 9.97644C38.804 10.5169 39.9432 11.3524 40.7768 12.4833C41.1811 13.0311 41.4982 13.6304 41.7295 14.2818L41.647 14.2732C40.65 14.1608 39.7085 13.8359 38.9694 13.2676C38.7674 13.1125 38.6029 12.9628 38.4622 12.8081C38.3138 12.6449 38.1763 12.4623 38.0364 12.2495L37.6425 11.5834C37.3666 11.024 37.1454 10.4425 36.97 9.84036ZM35.2054 16.97C35.158 16.2043 34.887 15.6247 34.3926 15.232C33.8982 14.8389 33.1829 14.6718 32.246 14.7303L29.728 14.8873L30.0259 19.7176L32.5435 19.5602C33.4804 19.502 34.1702 19.2469 34.6126 18.7957C35.0547 18.3444 35.2524 17.7357 35.2054 16.97Z" fill="#066344"/>
<path fill-rule="evenodd" clip-rule="evenodd" d="M79.5167 10.3889L77.9783 30.9866L72.3039 30.5575L65.2222 20.6124L64.5235 29.9693L57.7963 29.4611L58.8977 14.7125L58.999 14.702C59.5016 14.6458 59.969 14.5632 60.4107 14.443C60.8762 14.3163 61.3163 14.1465 61.7406 13.922C62.9939 13.2586 63.8941 12.2394 64.5697 11.0752C64.8349 10.6185 65.0645 10.1404 65.2669 9.65465L72.0904 19.2376L72.7891 9.88068L79.5167 10.3889ZM59.0703 12.3984L59.3343 8.86337L63.0178 9.14174C62.8937 9.41157 62.7596 9.67443 62.6135 9.92643C62.131 10.7573 61.5129 11.4722 60.687 11.9091C60.4203 12.0502 60.1351 12.1595 59.8268 12.2433C59.5879 12.3084 59.3366 12.3592 59.0703 12.3984Z" fill="#066344"/>
<path d="M81.7565 10.7972L91.7363 12.4387C93.9938 12.8116 95.9188 13.5529 97.5104 14.6625C99.102 15.772 100.248 17.1708 100.954 18.8643C101.66 20.5523 101.842 22.4361 101.506 24.511C101.165 26.5856 100.394 28.3154 99.1888 29.6902C97.9887 31.0649 96.4518 32.021 94.5931 32.5634C92.7344 33.1011 90.6761 33.1856 88.4182 32.8127L78.4338 31.1708L81.7565 10.7972ZM89.0001 27.4137C90.4665 27.6525 91.7085 27.4237 92.7217 26.7274C93.7349 26.0257 94.3677 24.9107 94.6197 23.3766C94.8671 21.8429 94.6247 20.5833 93.8836 19.5935C93.1425 18.6037 92.0388 17.9916 90.5724 17.7481L87.7087 17.2755L86.1363 26.9411L89.0001 27.4137Z" fill="#066344"/>
<path fill-rule="evenodd" clip-rule="evenodd" d="M65.8052 0.781135L65.8018 0.838513L65.7424 1.86047C65.6835 2.80683 65.6025 3.79583 65.4376 4.61812C65.233 5.63776 65.2118 6.22821 64.8911 7.30057C64.2491 9.44838 63.2933 11.8149 61.2138 12.9155C60.5221 13.2819 59.7648 13.4715 58.875 13.5707C57.5967 13.7134 56.0201 13.4819 54.8867 12.9772L53.8404 12.4456C53.7436 12.7748 53.3267 13.4715 53.1367 13.9351C52.3709 15.8034 51.967 16.9684 51.5177 18.9589C51.2102 20.322 50.7273 23.3378 50.624 24.8029C50.5781 25.4531 50.6487 26.4002 50.338 26.7643C49.9349 27.2369 49.1962 26.9376 49.1222 26.377L49.1707 24.3009C49.185 21.5448 48.6952 18.5053 47.6735 15.9872C47.3267 15.132 47.1984 14.9563 46.8488 14.1852C46.4866 14.248 46.5143 14.4415 45.885 14.7454C45.7066 14.8319 45.5455 14.9005 45.3524 14.9683C43.0482 15.7755 40.1787 15.6286 38.283 14.1716C37.7862 13.7894 37.4359 13.3947 37.0903 12.8678L36.6317 12.0928C35.1599 9.11264 35.1106 5.6207 35.3368 1.73525C35.3611 1.31964 35.7696 1.10331 36.2039 1.12889C40.0627 1.35608 46.4018 2.15744 48.1946 6.03747C48.346 6.36507 48.41 6.64963 48.5148 6.99274C48.6389 7.39943 49.2104 10.739 48.0038 10.6677C47.7545 10.6533 47.5768 10.6029 47.4092 10.4095L45.6526 8.42449C44.9566 7.73633 42.948 6.20262 42.1129 5.8851C41.7506 5.74747 41.2103 5.93783 41.1845 6.38212C41.1533 6.91636 41.2662 6.91326 41.842 7.2618C42.1098 7.42385 42.3665 7.58552 42.6694 7.76347L44.246 8.89282C44.4915 9.09015 44.6919 9.28749 44.9497 9.50537C46.4411 10.7654 48.0061 13.109 48.785 14.9366C49.2112 15.9368 49.5091 16.7583 49.7935 17.8167C49.8602 18.0648 50.0116 18.6309 50.0186 18.9135C50.0745 18.8352 50.0112 18.9682 50.0825 18.7953L50.6633 16.5955C50.787 16.1508 50.8868 15.8845 51.0152 15.4708C51.2098 14.8435 52.0403 12.8279 52.3447 12.2774C52.4422 12.0998 52.5104 11.9913 52.6102 11.8164L53.1382 10.8902C53.9487 9.58562 54.3992 9.12737 55.3699 8.01935C56.207 7.06446 57.5265 6.11772 58.6067 5.46019C59.9109 4.66659 59.2395 3.9796 58.6711 3.94625C58.3601 3.92764 57.3011 4.68171 56.9781 4.88757C56.7827 5.01202 56.5939 5.12949 56.4147 5.26557C55.4663 5.98513 54.3456 6.98227 53.6265 7.95111C53.4508 8.18799 53.0118 8.83234 52.8114 8.99711C52.3875 9.34603 51.8418 9.11535 51.6903 8.66757C51.5647 8.29577 51.594 7.15557 51.6241 6.63839C51.6664 5.90914 51.8757 5.0756 52.0834 4.49213C53.7232 -0.119862 60.9387 -0.162896 65.0144 0.0770857C65.2453 0.090655 65.4202 0.14687 65.5563 0.269769C65.6877 0.388403 65.8183 0.555886 65.8052 0.781135Z" fill="#B28A3D"/>
<path d="M54.2149 31.0017H46.6449C46.6449 19.2108 46.2137 18.6235 40.1898 8.45471L46.048 11.1042L50.6348 18.9135L53.838 10.2807L60.1359 9.29368C54.1907 19.3985 54.2149 19.3031 54.2149 31.0017Z" fill="#B28A3D"/>
<path fill-rule="evenodd" clip-rule="evenodd" d="M50.1631 30.326C71.7794 30.326 90.5093 33.0007 99.684 36.9051C87.0998 34.6778 69.5635 33.2949 50.1631 33.2949C30.7627 33.2949 13.2264 34.6778 0.642212 36.9051C9.81695 33.0007 28.5468 30.326 50.1631 30.326Z" fill="#B28A3D"/>
</g>
<defs>
<clipPath id="clip0_4793_3627">
<rect width="102" height="36.9079" fill="white"/>
</clipPath>
</defs>
</svg>
